<svg width="28" height="24" viewBox="0 0 28 24" fill="none" xmlns="http://www.w3.org/2000/svg">
<path d="M25.6875 0.578125H2.3125C1.81936 0.578125 1.34642 0.774023 0.997723 1.12272C0.649023 1.47142 0.453125 1.94436 0.453125 2.4375V21.5625C0.453125 22.0556 0.649023 22.5286 0.997723 22.8773C1.34642 23.226 1.81936 23.4219 2.3125 23.4219H25.6875C26.1806 23.4219 26.6536 23.226 27.0023 22.8773C27.351 22.5286 27.5469 22.0556 27.5469 21.5625V2.4375C27.5469 1.94436 27.351 1.47142 27.0023 1.12272C26.6536 0.774023 26.1806 0.578125 25.6875 0.578125ZM2.3125 2.17188H25.6875C25.7579 2.17188 25.8255 2.19986 25.8753 2.24967C25.9251 2.29949 25.9531 2.36705 25.9531 2.4375V16.7241L22.0391 12.8102C21.8665 12.6375 21.6615 12.5005 21.4359 12.407C21.2103 12.3136 20.9685 12.2655 20.7243 12.2655C20.4801 12.2655 20.2383 12.3136 20.0127 12.407C19.7871 12.5005 19.5821 12.6375 19.4095 12.8102L16.5646 15.655L10.5336 9.62266C10.3609 9.44998 10.1559 9.313 9.93035 9.21955C9.70474 9.12609 9.46294 9.07799 9.21875 9.07799C8.97456 9.07799 8.73276 9.12609 8.50715 9.21955C8.28155 9.313 8.07657 9.44998 7.90391 9.62266L2.04688 15.4797V2.4375C2.04688 2.36705 2.07486 2.29949 2.12467 2.24967C2.17449 2.19986 2.24205 2.17188 2.3125 2.17188ZM2.04688 21.5625V17.7335L9.03016 10.7502C9.05485 10.7253 9.08423 10.7056 9.1166 10.6921C9.14897 10.6786 9.18368 10.6717 9.21875 10.6717C9.25382 10.6717 9.28853 10.6786 9.3209 10.6921C9.35327 10.7056 9.38265 10.7253 9.40734 10.7502L20.4852 21.8281H2.3125C2.24205 21.8281 2.17449 21.8001 2.12467 21.7503C2.07486 21.7005 2.04688 21.6329 2.04688 21.5625ZM25.6875 21.8281H22.7391L17.6922 16.7812L20.5357 13.9364C20.5604 13.9117 20.5897 13.8921 20.6219 13.8787C20.6542 13.8654 20.6887 13.8585 20.7236 13.8585C20.7585 13.8585 20.7931 13.8654 20.8254 13.8787C20.8576 13.8921 20.8869 13.9117 20.9116 13.9364L25.9584 18.9833V21.5625C25.9584 21.5978 25.9514 21.6328 25.9377 21.6654C25.924 21.698 25.904 21.7275 25.8788 21.7522C25.8535 21.777 25.8236 21.7964 25.7908 21.8095C25.7579 21.8225 25.7228 21.8288 25.6875 21.8281ZM16.3906 8.28125C16.3906 8.01857 16.4685 7.76179 16.6145 7.54338C16.7604 7.32497 16.9678 7.15475 17.2105 7.05422C17.4532 6.9537 17.7202 6.9274 17.9779 6.97864C18.2355 7.02989 18.4721 7.15638 18.6579 7.34212C18.8436 7.52787 18.9701 7.76451 19.0214 8.02215C19.0726 8.27978 19.0463 8.54682 18.9458 8.7895C18.8453 9.03218 18.675 9.23961 18.4566 9.38555C18.2382 9.53148 17.9814 9.60938 17.7188 9.60938C17.3665 9.60938 17.0287 9.46945 16.7796 9.22038C16.5306 8.9713 16.3906 8.63349 16.3906 8.28125Z" fill="#E31E24"/>
</svg>
